<svg id="visual" viewBox="0 0 900 600" width="900" height="600" xmlns="http://www.w3.org/2000/svg" xmlns:xlink="http://www.w3.org/1999/xlink" version="1.1"><rect x="0" y="0" width="900" height="600" fill="#FF0066"></rect><g transform="translate(10.403774941345688 23.136390564964756)"><path d="M234.3 -449.3C277.6 -380.8 268.7 -265.4 307.5 -182.7C346.2 -100 432.6 -50 470.6 21.9C508.5 93.8 498 187.7 437.5 232.6C376.9 277.4 266.2 273.4 184.9 319.5C103.7 365.6 51.8 461.8 -14.5 486.9C-80.8 512 -161.7 466 -206.6 398.9C-251.4 331.8 -260.4 243.7 -320 173.7C-379.6 103.7 -489.8 51.8 -510 -11.7C-530.2 -75.2 -460.4 -150.3 -408.6 -233.8C-356.7 -317.2 -322.9 -408.9 -257.8 -464.8C-192.7 -520.7 -96.3 -540.9 -0.4 -540.1C95.5 -539.4 191 -517.8 234.3 -449.3" fill="#BB004B"></path></g></svg>