<svg id="visual" viewBox="0 0 900 600" width="900" height="600" xmlns="http://www.w3.org/2000/svg" xmlns:xlink="http://www.w3.org/1999/xlink" version="1.1"><rect x="0" y="0" width="900" height="600" fill="#FF0066"></rect><g transform="translate(500.91907425818766 325.21489215011013)"><path d="M170.8 -246C206 -209.5 208.5 -139 207 -81.9C205.4 -24.7 199.7 19.2 197.5 76C195.4 132.9 196.7 202.8 164.4 223.5C132.1 244.3 66 215.9 8.6 204C-48.8 192.2 -97.6 196.8 -157 184.9C-216.5 172.9 -286.6 144.4 -304.3 97.1C-322.1 49.9 -287.5 -16.2 -256.8 -75C-226.1 -133.8 -199.1 -185.4 -157 -219.7C-114.8 -254 -57.4 -271 5.2 -278.2C67.8 -285.3 135.6 -282.6 170.8 -246" fill="#BB004B"></path></g></svg>